<svg width="500px" height="500px" viewBox="0 0 200 200" version="1.1" preserveAspectRatio="none" xmlns="http://www.w3.org/2000/svg" xmlns:xlink="http://www.w3.org/1999/xlink" xml:space="preserve" style="fill-rule:evenodd;clip-rule:evenodd;stroke-linejoin:round;stroke-miterlimit:1.41421;"><path d="M74.819,0l-74.819,43.266l0,86.532l74.819,43.265l75.181,-43.265l0,-86.532l-75.181,-43.266ZM74.318,54.683l27.682,15.924l0,32.049l-27.682,16.025l-27.818,-16.025l0,-32.049l27.818,-15.924Z" style="fill:#A0A0A0;fill-rule:nonzero;"/><path d="M37.049,21.598l-37.049,21.552l0,86.532l37.103,21.578l22.147,-38.642l0,0.046l-29.934,0l14.953,-26.248l-14.953,-26.252l29.934,0l0,0.103l-22.201,-38.669Z" style="fill:#D0D0D0;fill-rule:nonzero;"/><path class="logo-animation-a" d="M33.633,63.164l12.697,23.005l-12.697,23.495l26.936,0l13.49,-23.453l-13.49,-23.047l-26.936,0Z" style="fill:#D0D0D0;fill-rule:nonzero;"/></svg>